<svg width="218" height="309" viewBox="0 0 218 309" fill="none" xmlns="http://www.w3.org/2000/svg">
<circle cx="154.149" cy="154.149" r="45" transform="rotate(-135 154.149 154.149)" fill="#FF0000"/>
<circle cx="63.6396" cy="244.659" r="45" transform="rotate(-135 63.6396 244.659)" fill="#FF0000"/>
<path d="M102.706 194.277C85.0478 211.588 61.4118 183.247 29.6985 214.96L93.3381 278.6C125.051 246.887 96.7111 223.251 114.022 205.592C131.68 188.281 155.316 216.622 187.03 184.908L123.39 121.269C91.6768 152.982 120.017 176.618 102.706 194.277Z" fill="#FF0000"/>
<circle cx="154.149" cy="154.149" r="45" transform="rotate(-45 154.149 154.149)" fill="#FF0000"/>
<circle cx="63.6396" cy="63.6396" r="45" transform="rotate(-45 63.6396 63.6396)" fill="#FF0000"/>
<path d="M114.022 102.706C96.7111 85.0478 125.051 61.4118 93.3381 29.6985L29.6985 93.3381C61.4118 125.051 85.0477 96.7111 102.706 114.022C120.017 131.68 91.6768 155.316 123.39 187.03L187.03 123.39C155.316 91.6768 131.68 120.017 114.022 102.706Z" fill="#FF0000"/>
<mask id="path-7-outside-1_201_85" maskUnits="userSpaceOnUse" x="16.7452" y="14.2548" width="191" height="282" fill="black">
<rect fill="white" x="16.7452" y="14.2548" width="191" height="282"/>
<path fill-rule="evenodd" clip-rule="evenodd" d="M34.0258 95.1494C34.3204 95.461 34.6202 95.7695 34.9254 96.0746C38.0988 99.248 41.6282 101.848 45.3851 103.876C58.3212 111.428 69.7634 110.24 79.8882 109.189C89.7173 108.169 98.3048 107.278 105.812 114.637C113.171 122.144 112.28 130.732 111.26 140.561C110.795 145.033 110.304 149.763 110.552 154.765C110.304 159.766 110.795 164.496 111.26 168.968C112.28 178.797 113.171 187.385 105.812 194.892C98.3048 202.251 89.7173 201.36 79.8882 200.34C69.7635 199.289 58.3214 198.101 45.3853 205.653C41.6284 207.681 38.0989 210.281 34.9254 213.454C34.6202 213.76 34.3203 214.068 34.0257 214.38C33.6198 214.769 33.2126 215.167 32.8041 215.576L32.8737 215.645C17.3807 233.321 18.0646 260.233 34.9254 277.094C51.7862 293.955 78.698 294.639 96.3741 279.146L96.4437 279.215C96.8522 278.807 97.2508 278.4 97.6397 277.994C97.9513 277.699 98.2598 277.399 98.565 277.094C101.738 273.921 104.339 270.391 106.366 266.634C113.919 253.698 112.731 242.256 111.68 232.131C110.66 222.302 109.768 213.715 117.127 206.207C124.635 198.848 133.222 199.739 143.051 200.76C155.139 202.014 169.104 203.464 185.248 190.003C186.572 188.949 187.85 187.809 189.075 186.584C189.227 186.432 189.377 186.28 189.526 186.126C189.729 185.928 189.932 185.727 190.135 185.524L190.118 185.506C206.3 168.228 206.3 141.301 190.118 124.023L190.135 124.005C189.932 123.802 189.729 123.601 189.527 123.403C189.377 123.249 189.227 123.097 189.075 122.945C187.85 121.72 186.571 120.58 185.247 119.525C169.104 106.065 155.139 107.514 143.051 108.769C133.222 109.789 124.635 110.681 117.127 103.322C109.768 95.8144 110.66 87.227 111.68 77.3978C112.731 67.2731 113.918 55.831 106.366 42.895C104.339 39.138 101.738 35.6085 98.565 32.435C98.2598 32.1298 97.9513 31.8299 97.6396 31.5353C97.2508 31.1295 96.8522 30.7223 96.4437 30.3137L96.3741 30.3833C78.6979 14.8903 51.7861 15.5742 34.9254 32.435C18.0646 49.2958 17.3807 76.2076 32.8737 93.8837L32.8041 93.9533C33.2127 94.3619 33.6199 94.7605 34.0258 95.1494Z"/>
</mask>
<path d="M34.0258 95.1494L37.6595 91.7148L37.5743 91.6247L37.4848 91.539L34.0258 95.1494ZM34.9254 96.0746L31.3898 99.6102L31.3898 99.6102L34.9254 96.0746ZM45.3851 103.876L47.9061 99.5577L47.8335 99.5154L47.7596 99.4755L45.3851 103.876ZM79.8882 109.189L79.372 104.216L79.372 104.216L79.8882 109.189ZM105.812 114.637L109.382 111.137L109.348 111.101L109.312 111.067L105.812 114.637ZM111.26 140.561L116.233 141.077L116.233 141.077L111.26 140.561ZM110.552 154.765L115.546 155.012L115.558 154.765L115.546 154.517L110.552 154.765ZM111.26 168.968L106.286 169.484L106.286 169.484L111.26 168.968ZM105.812 194.892L109.312 198.462L109.348 198.428L109.383 198.392L105.812 194.892ZM79.8882 200.34L79.372 205.313L79.372 205.313L79.8882 200.34ZM45.3853 205.653L47.7598 210.053L47.8337 210.014L47.9063 209.971L45.3853 205.653ZM34.9254 213.454L38.4609 216.99L38.4609 216.99L34.9254 213.454ZM34.0257 214.38L37.4847 217.99L37.5742 217.904L37.6594 217.814L34.0257 214.38ZM32.8041 215.576L29.2686 212.04L25.7329 215.576L29.2687 219.111L32.8041 215.576ZM32.8737 215.645L36.6338 218.941L39.7198 215.42L36.4091 212.11L32.8737 215.645ZM34.9254 277.094L31.3899 280.63L31.3899 280.63L34.9254 277.094ZM96.3741 279.146L99.9094 275.61L96.599 272.3L93.0784 275.386L96.3741 279.146ZM96.4437 279.215L92.9084 282.751L96.444 286.286L99.9793 282.751L96.4437 279.215ZM97.6397 277.994L94.2051 274.36L94.115 274.445L94.0292 274.535L97.6397 277.994ZM98.565 277.094L102.1 280.63L102.101 280.63L98.565 277.094ZM106.366 266.634L102.048 264.113L102.006 264.186L101.966 264.26L106.366 266.634ZM111.68 232.131L116.653 231.615L116.653 231.615L111.68 232.131ZM117.127 206.207L113.627 202.637L113.592 202.672L113.557 202.707L117.127 206.207ZM143.051 200.76L143.567 195.786L143.567 195.786L143.051 200.76ZM185.248 190.003L182.133 186.092L182.089 186.127L182.046 186.163L185.248 190.003ZM189.526 186.126L186.028 182.553L185.984 182.597L185.942 182.641L189.526 186.126ZM190.135 185.524L193.671 189.059L197.206 185.524L193.671 181.988L190.135 185.524ZM190.118 185.506L186.469 182.088L183.161 185.62L186.582 189.042L190.118 185.506ZM190.118 124.023L186.583 120.486L183.16 123.908L186.469 127.441L190.118 124.023ZM190.135 124.005L193.67 127.542L197.207 124.006L193.671 120.47L190.135 124.005ZM189.527 123.403L185.942 126.889L185.985 126.933L186.029 126.976L189.527 123.403ZM185.247 119.525L182.045 123.366L182.089 123.402L182.133 123.437L185.247 119.525ZM143.051 108.769L143.567 113.742L143.567 113.742L143.051 108.769ZM117.127 103.322L113.557 106.822L113.592 106.857L113.627 106.892L117.127 103.322ZM111.68 77.3978L106.707 76.8816L106.707 76.8816L111.68 77.3978ZM106.366 42.895L101.966 45.2694L102.006 45.3433L102.048 45.4159L106.366 42.895ZM98.565 32.435L102.101 28.8995L102.101 28.8995L98.565 32.435ZM97.6396 31.5353L94.0292 34.9943L94.1149 35.0838L94.205 35.169L97.6396 31.5353ZM96.4437 30.3137L99.9792 26.7782L96.4438 23.2427L92.9082 26.7781L96.4437 30.3137ZM96.3741 30.3833L93.0784 34.1434L96.5991 37.2292L99.9095 33.9189L96.3741 30.3833ZM34.9254 32.435L38.4609 35.9706L38.4609 35.9706L34.9254 32.435ZM32.8737 93.8837L36.4093 97.4192L39.7196 94.1087L36.6338 90.588L32.8737 93.8837ZM32.8041 93.9533L29.2684 90.4179L25.7331 93.9534L29.2685 97.4888L32.8041 93.9533ZM30.3922 98.5841C30.719 98.9298 31.0515 99.2718 31.3898 99.6102L38.4609 92.5391C38.1889 92.2671 37.9218 91.9923 37.6595 91.7148L30.3922 98.5841ZM31.3898 99.6102C34.9099 103.13 38.8314 106.021 43.0106 108.276L47.7596 99.4755C44.425 97.6761 41.2876 95.3658 38.4609 92.5391L31.3898 99.6102ZM42.8641 108.194C57.3203 116.634 70.24 115.218 80.4044 114.163L79.372 104.216C69.2869 105.263 59.3221 106.223 47.9061 99.5577L42.8641 108.194ZM80.4044 114.163C90.568 113.108 96.7036 112.71 102.312 118.208L109.312 111.067C99.906 101.846 88.8666 103.231 79.372 104.216L80.4044 114.163ZM102.241 118.137C107.739 123.745 107.341 129.881 106.286 140.045L116.233 141.077C117.218 131.582 118.603 120.543 109.382 111.137L102.241 118.137ZM106.286 140.045C105.827 144.473 105.289 149.571 105.558 155.012L115.546 154.517C115.32 149.955 115.764 145.594 116.233 141.077L106.286 140.045ZM116.233 168.452C115.764 163.935 115.32 159.574 115.546 155.012L105.558 154.517C105.289 159.958 105.827 165.056 106.286 169.484L116.233 168.452ZM109.383 198.392C118.603 188.986 117.218 177.947 116.233 168.452L106.286 169.484C107.341 179.648 107.739 185.784 102.241 191.392L109.383 198.392ZM79.372 205.313C88.8667 206.298 99.906 207.683 109.312 198.462L102.312 191.321C96.7036 196.819 90.568 196.421 80.4045 195.366L79.372 205.313ZM47.9063 209.971C59.3222 203.306 69.2869 204.266 79.372 205.313L80.4045 195.366C70.2401 194.311 57.3205 192.895 42.8644 201.335L47.9063 209.971ZM38.4609 216.99C41.2877 214.163 44.4252 211.853 47.7598 210.053L43.0109 201.253C38.8316 203.508 34.91 206.399 31.3899 209.919L38.4609 216.99ZM37.6594 217.814C37.9218 217.537 38.1889 217.262 38.4609 216.99L31.3899 209.919C31.0515 210.257 30.7189 210.599 30.3921 210.945L37.6594 217.814ZM36.3396 219.111C36.7233 218.728 37.105 218.354 37.4847 217.99L30.5667 210.769C30.1347 211.183 29.702 211.607 29.2686 212.04L36.3396 219.111ZM36.4091 212.11L36.3395 212.04L29.2687 219.111L29.3383 219.181L36.4091 212.11ZM38.4609 273.558C23.475 258.572 22.8654 234.649 36.6338 218.941L29.1136 212.35C11.896 231.993 12.6543 261.894 31.3899 280.63L38.4609 273.558ZM93.0784 275.386C77.3699 289.154 53.4469 288.544 38.4609 273.558L31.3899 280.63C50.1255 299.365 80.026 300.123 99.6698 282.906L93.0784 275.386ZM99.979 275.68L99.9094 275.61L92.8388 282.681L92.9084 282.751L99.979 275.68ZM94.0292 274.535C93.6655 274.914 93.2918 275.296 92.9081 275.68L99.9793 282.751C100.413 282.317 100.836 281.885 101.25 281.453L94.0292 274.535ZM95.0296 273.558C94.7575 273.83 94.4826 274.098 94.2051 274.36L101.074 281.627C101.42 281.3 101.762 280.968 102.1 280.63L95.0296 273.558ZM101.966 264.26C100.166 267.594 97.8562 270.732 95.0295 273.558L102.101 280.63C105.621 277.109 108.511 273.188 110.766 269.009L101.966 264.26ZM106.707 232.647C107.753 242.732 108.713 252.697 102.048 264.113L110.684 269.155C119.124 254.699 117.708 241.779 116.653 231.615L106.707 232.647ZM113.557 202.707C104.336 212.113 105.721 223.153 106.707 232.647L116.653 231.615C115.598 221.451 115.2 215.316 120.698 209.708L113.557 202.707ZM143.567 195.786C134.073 194.801 123.033 193.416 113.627 202.637L120.628 209.778C126.236 204.28 132.371 204.678 142.535 205.733L143.567 195.786ZM182.046 186.163C174.645 192.334 167.937 194.952 161.811 195.967C155.547 197.005 149.674 196.42 143.567 195.786L142.535 205.733C148.516 206.354 155.67 207.121 163.446 205.833C171.36 204.521 179.707 201.133 188.45 193.843L182.046 186.163ZM185.539 183.049C184.447 184.14 183.31 185.155 182.133 186.092L188.363 193.914C189.833 192.743 191.252 191.478 192.61 190.12L185.539 183.049ZM185.942 182.641C185.809 182.777 185.675 182.913 185.539 183.049L192.61 190.12C192.779 189.951 192.945 189.782 193.111 189.612L185.942 182.641ZM186.6 181.988C186.409 182.179 186.218 182.368 186.028 182.553L193.024 189.699C193.24 189.488 193.455 189.275 193.671 189.059L186.6 181.988ZM186.582 189.042L186.6 189.059L193.671 181.988L193.654 181.971L186.582 189.042ZM186.469 127.441C200.85 142.796 200.85 166.733 186.469 182.088L193.767 188.924C211.751 169.723 211.751 139.806 193.767 120.605L186.469 127.441ZM193.653 127.559L193.67 127.542L186.601 120.469L186.583 120.486L193.653 127.559ZM193.671 120.47C193.455 120.254 193.24 120.041 193.025 119.83L186.029 126.976C186.219 127.162 186.409 127.35 186.6 127.541L193.671 120.47ZM185.539 126.48C185.675 126.616 185.809 126.752 185.942 126.889L193.111 119.917C192.946 119.747 192.779 119.578 192.61 119.409L185.539 126.48ZM182.133 123.437C183.31 124.374 184.447 125.388 185.539 126.48L192.61 119.409C191.252 118.051 189.833 116.786 188.362 115.614L182.133 123.437ZM188.449 115.685C179.707 108.396 171.36 105.008 163.446 103.696C155.67 102.408 148.516 103.175 142.535 103.796L143.567 113.742C149.674 113.109 155.547 112.524 161.811 113.562C167.937 114.577 174.645 117.195 182.045 123.366L188.449 115.685ZM142.535 103.796C132.371 104.851 126.236 105.249 120.628 99.7511L113.627 106.892C123.033 116.113 134.073 114.728 143.567 113.742L142.535 103.796ZM120.698 99.8214C115.2 94.2133 115.598 88.0776 116.653 77.9141L106.707 76.8816C105.721 86.3763 104.336 97.4156 113.557 106.822L120.698 99.8214ZM116.653 77.9141C117.708 67.7497 119.124 54.8301 110.684 40.374L102.048 45.4159C108.713 56.8318 107.753 66.7965 106.707 76.8816L116.653 77.9141ZM110.766 40.5205C108.511 36.3412 105.621 32.4196 102.101 28.8995L95.0295 35.9705C97.8562 38.7973 100.167 41.9348 101.966 45.2694L110.766 40.5205ZM102.101 28.8995C101.762 28.5611 101.42 28.2285 101.074 27.9017L94.205 35.169C94.4826 35.4314 94.7575 35.6986 95.0295 35.9706L102.101 28.8995ZM101.25 28.0764C100.836 27.6443 100.413 27.2116 99.9792 26.7782L92.9081 33.8492C93.2918 34.2329 93.6654 34.6146 94.0292 34.9943L101.25 28.0764ZM92.9082 26.7781L92.8386 26.8477L99.9095 33.9189L99.9791 33.8493L92.9082 26.7781ZM99.6698 26.6232C80.026 9.40562 50.1254 10.1639 31.3898 28.8995L38.4609 35.9706C53.4469 20.9846 77.3699 20.3751 93.0784 34.1434L99.6698 26.6232ZM31.3898 28.8995C12.6543 47.6351 11.896 77.5356 29.1135 97.1794L36.6338 90.588C22.8654 74.8795 23.475 50.9565 38.4609 35.9706L31.3898 28.8995ZM29.338 90.3483L29.2684 90.4179L36.3397 97.4887L36.4093 97.4192L29.338 90.3483ZM29.2685 97.4888C29.702 97.9223 30.1348 98.346 30.5669 98.7599L37.4848 91.539C37.105 91.1751 36.7233 90.8015 36.3396 90.4178L29.2685 97.4888Z" fill="white" mask="url(#path-7-outside-1_201_85)"/>
<mask id="path-9-outside-2_201_85" maskUnits="userSpaceOnUse" x="9.74519" y="17.2548" width="191" height="282" fill="black">
<rect fill="white" x="9.74519" y="17.2548" width="191" height="282"/>
<path fill-rule="evenodd" clip-rule="evenodd" d="M27.0258 98.1494C27.3204 98.461 27.6202 98.7695 27.9254 99.0746C31.0988 102.248 34.6282 104.848 38.3851 106.876C51.3212 114.428 62.7634 113.24 72.8882 112.189C82.7173 111.169 91.3048 110.278 98.812 117.637C106.171 125.144 105.28 133.732 104.26 143.561C103.795 148.033 103.304 152.763 103.552 157.765C103.304 162.766 103.795 167.496 104.26 171.968C105.28 181.797 106.171 190.385 98.812 197.892C91.3048 205.251 82.7173 204.36 72.8882 203.34C62.7635 202.289 51.3214 201.101 38.3853 208.653C34.6284 210.681 31.0989 213.281 27.9254 216.454C27.6202 216.76 27.3203 217.068 27.0257 217.38C26.6198 217.769 26.2126 218.167 25.8041 218.576L25.8737 218.645C10.3807 236.321 11.0646 263.233 27.9254 280.094C44.7862 296.955 71.698 297.639 89.3741 282.146L89.4437 282.215C89.8522 281.807 90.2508 281.4 90.6397 280.994C90.9513 280.699 91.2598 280.399 91.565 280.094C94.7384 276.921 97.3388 273.391 99.3661 269.634C106.919 256.698 105.731 245.256 104.68 235.131C103.66 225.302 102.768 216.715 110.127 209.207C117.635 201.848 126.222 202.739 136.051 203.76C148.139 205.014 162.104 206.464 178.248 193.003C179.572 191.949 180.85 190.809 182.075 189.584C182.227 189.432 182.377 189.28 182.526 189.126C182.729 188.928 182.932 188.727 183.135 188.524L183.118 188.506C199.3 171.228 199.3 144.301 183.118 127.023L183.135 127.005C182.932 126.802 182.729 126.601 182.527 126.403C182.377 126.249 182.227 126.097 182.075 125.945C180.85 124.72 179.571 123.58 178.247 122.525C162.104 109.065 148.139 110.514 136.051 111.769C126.222 112.789 117.635 113.681 110.127 106.322C102.768 98.8144 103.66 90.227 104.68 80.3978C105.731 70.2731 106.918 58.831 99.3662 45.895C97.3388 42.138 94.7384 38.6085 91.565 35.435C91.2598 35.1298 90.9513 34.8299 90.6396 34.5353C90.2508 34.1295 89.8522 33.7223 89.4437 33.3137L89.3741 33.3833C71.6979 17.8903 44.7861 18.5742 27.9254 35.435C11.0646 52.2958 10.3807 79.2076 25.8737 96.8837L25.8041 96.9533C26.2127 97.3619 26.6199 97.7605 27.0258 98.1494Z"/>
</mask>
<path d="M27.0258 98.1494L30.6595 94.7148L30.5743 94.6247L30.4848 94.539L27.0258 98.1494ZM27.9254 99.0746L24.3898 102.61L24.3898 102.61L27.9254 99.0746ZM38.3851 106.876L40.9061 102.558L40.8335 102.515L40.7596 102.475L38.3851 106.876ZM72.8882 112.189L72.372 107.216L72.372 107.216L72.8882 112.189ZM98.812 117.637L102.382 114.137L102.348 114.101L102.312 114.067L98.812 117.637ZM104.26 143.561L109.233 144.077L109.233 144.077L104.26 143.561ZM103.552 157.765L108.546 158.012L108.558 157.765L108.546 157.517L103.552 157.765ZM104.26 171.968L99.2863 172.484L99.2863 172.484L104.26 171.968ZM98.812 197.892L102.312 201.462L102.348 201.428L102.383 201.392L98.812 197.892ZM72.8882 203.34L72.372 208.313L72.372 208.313L72.8882 203.34ZM38.3853 208.653L40.7598 213.053L40.8337 213.014L40.9063 212.971L38.3853 208.653ZM27.9254 216.454L31.4609 219.99L31.4609 219.99L27.9254 216.454ZM27.0257 217.38L30.4847 220.99L30.5742 220.904L30.6594 220.814L27.0257 217.38ZM25.8041 218.576L22.2686 215.04L18.7329 218.576L22.2687 222.111L25.8041 218.576ZM25.8737 218.645L29.6338 221.941L32.7198 218.42L29.4091 215.11L25.8737 218.645ZM27.9254 280.094L24.3899 283.63L24.3899 283.63L27.9254 280.094ZM89.3741 282.146L92.9094 278.61L89.599 275.3L86.0784 278.386L89.3741 282.146ZM89.4437 282.215L85.9084 285.751L89.444 289.286L92.9793 285.751L89.4437 282.215ZM90.6397 280.994L87.2051 277.36L87.115 277.445L87.0292 277.535L90.6397 280.994ZM91.565 280.094L95.1005 283.63L95.1005 283.63L91.565 280.094ZM99.3661 269.634L95.0481 267.113L95.0058 267.186L94.9659 267.26L99.3661 269.634ZM104.68 235.131L109.653 234.615L109.653 234.615L104.68 235.131ZM110.127 209.207L106.627 205.637L106.592 205.672L106.557 205.707L110.127 209.207ZM136.051 203.76L136.567 198.786L136.567 198.786L136.051 203.76ZM178.248 193.003L175.133 189.092L175.089 189.127L175.046 189.163L178.248 193.003ZM182.526 189.126L179.028 185.553L178.984 185.597L178.942 185.641L182.526 189.126ZM183.135 188.524L186.671 192.059L190.206 188.524L186.671 184.988L183.135 188.524ZM183.118 188.506L179.469 185.088L176.161 188.62L179.582 192.042L183.118 188.506ZM183.118 127.023L179.583 123.486L176.16 126.908L179.469 130.441L183.118 127.023ZM183.135 127.005L186.67 130.542L190.207 127.006L186.671 123.47L183.135 127.005ZM182.527 126.403L178.942 129.889L178.985 129.933L179.029 129.976L182.527 126.403ZM178.247 122.525L175.045 126.366L175.089 126.402L175.133 126.437L178.247 122.525ZM136.051 111.769L136.567 116.742L136.567 116.742L136.051 111.769ZM110.127 106.322L106.557 109.822L106.592 109.857L106.627 109.892L110.127 106.322ZM104.68 80.3978L99.7065 79.8816L99.7065 79.8816L104.68 80.3978ZM99.3662 45.895L94.9659 48.2694L95.0058 48.3433L95.0482 48.4159L99.3662 45.895ZM91.565 35.435L95.1005 31.8995L95.1005 31.8995L91.565 35.435ZM90.6396 34.5353L87.0292 37.9943L87.1149 38.0838L87.205 38.169L90.6396 34.5353ZM89.4437 33.3137L92.9792 29.7782L89.4438 26.2427L85.9082 29.7781L89.4437 33.3137ZM89.3741 33.3833L86.0784 37.1434L89.5991 40.2292L92.9095 36.9189L89.3741 33.3833ZM27.9254 35.435L31.4609 38.9706L31.4609 38.9706L27.9254 35.435ZM25.8737 96.8837L29.4093 100.419L32.7196 97.1087L29.6338 93.588L25.8737 96.8837ZM25.8041 96.9533L22.2684 93.4179L18.7331 96.9534L22.2685 100.489L25.8041 96.9533ZM23.3922 101.584C23.719 101.93 24.0515 102.272 24.3898 102.61L31.4609 95.5391C31.1889 95.2671 30.9218 94.9923 30.6595 94.7148L23.3922 101.584ZM24.3898 102.61C27.9099 106.13 31.8314 109.021 36.0106 111.276L40.7596 102.475C37.425 100.676 34.2876 98.3658 31.4609 95.5391L24.3898 102.61ZM35.8641 111.194C50.3203 119.634 63.24 118.218 73.4044 117.163L72.372 107.216C62.2869 108.263 52.3221 109.223 40.9061 102.558L35.8641 111.194ZM73.4044 117.163C83.568 116.108 89.7036 115.71 95.3118 121.208L102.312 114.067C92.906 104.846 81.8666 106.231 72.372 107.216L73.4044 117.163ZM95.2414 121.137C100.739 126.745 100.341 132.881 99.2863 143.045L109.233 144.077C110.218 134.582 111.603 123.543 102.382 114.137L95.2414 121.137ZM99.2863 143.045C98.8267 147.473 98.2888 152.571 98.558 158.012L108.546 157.517C108.32 152.955 108.764 148.594 109.233 144.077L99.2863 143.045ZM109.233 171.452C108.764 166.935 108.32 162.574 108.546 158.012L98.558 157.517C98.2888 162.958 98.8267 168.056 99.2863 172.484L109.233 171.452ZM102.383 201.392C111.603 191.986 110.218 180.947 109.233 171.452L99.2863 172.484C100.341 182.648 100.739 188.784 95.2414 194.392L102.383 201.392ZM72.372 208.313C81.8667 209.298 92.906 210.683 102.312 201.462L95.3118 194.321C89.7036 199.819 83.568 199.421 73.4045 198.366L72.372 208.313ZM40.9063 212.971C52.3222 206.306 62.2869 207.266 72.372 208.313L73.4045 198.366C63.2401 197.311 50.3205 195.895 35.8644 204.335L40.9063 212.971ZM31.4609 219.99C34.2877 217.163 37.4252 214.853 40.7598 213.053L36.0109 204.253C31.8316 206.508 27.91 209.399 24.3899 212.919L31.4609 219.99ZM30.6594 220.814C30.9218 220.537 31.1889 220.262 31.4609 219.99L24.3899 212.919C24.0515 213.257 23.7189 213.599 23.3921 213.945L30.6594 220.814ZM29.3396 222.111C29.7233 221.728 30.105 221.354 30.4847 220.99L23.5667 213.769C23.1347 214.183 22.702 214.607 22.2686 215.04L29.3396 222.111ZM29.4091 215.11L29.3395 215.04L22.2687 222.111L22.3383 222.181L29.4091 215.11ZM31.4609 276.558C16.475 261.572 15.8654 237.649 29.6338 221.941L22.1136 215.35C4.896 234.993 5.65428 264.894 24.3899 283.63L31.4609 276.558ZM86.0784 278.386C70.3699 292.154 46.4469 291.544 31.4609 276.558L24.3899 283.63C43.1255 302.365 73.026 303.123 92.6698 285.906L86.0784 278.386ZM92.979 278.68L92.9094 278.61L85.8388 285.681L85.9084 285.751L92.979 278.68ZM87.0292 277.535C86.6655 277.914 86.2918 278.296 85.9081 278.68L92.9793 285.751C93.4127 285.317 93.8362 284.885 94.2502 284.453L87.0292 277.535ZM88.0296 276.558C87.7575 276.83 87.4826 277.098 87.2051 277.36L94.0743 284.627C94.4201 284.3 94.7622 283.968 95.1005 283.63L88.0296 276.558ZM94.9659 267.26C93.1665 270.594 90.8562 273.732 88.0295 276.558L95.1005 283.63C98.6207 280.109 101.511 276.188 103.766 272.009L94.9659 267.26ZM99.7065 235.647C100.753 245.732 101.713 255.697 95.0481 267.113L103.684 272.155C112.124 257.699 110.708 244.779 109.653 234.615L99.7065 235.647ZM106.557 205.707C97.336 215.113 98.721 226.153 99.7065 235.647L109.653 234.615C108.598 224.451 108.2 218.316 113.698 212.708L106.557 205.707ZM136.567 198.786C127.073 197.801 116.033 196.416 106.627 205.637L113.628 212.778C119.236 207.28 125.371 207.678 135.535 208.733L136.567 198.786ZM175.046 189.163C167.645 195.334 160.937 197.952 154.811 198.967C148.547 200.005 142.674 199.42 136.567 198.786L135.535 208.733C141.516 209.354 148.67 210.121 156.446 208.833C164.36 207.521 172.707 204.133 181.45 196.843L175.046 189.163ZM178.539 186.049C177.447 187.14 176.31 188.155 175.133 189.092L181.363 196.914C182.833 195.743 184.252 194.478 185.61 193.12L178.539 186.049ZM178.942 185.641C178.809 185.777 178.675 185.913 178.539 186.049L185.61 193.12C185.779 192.951 185.945 192.782 186.111 192.612L178.942 185.641ZM179.6 184.988C179.409 185.179 179.218 185.368 179.028 185.553L186.024 192.699C186.24 192.488 186.455 192.275 186.671 192.059L179.6 184.988ZM179.582 192.042L179.6 192.059L186.671 184.988L186.654 184.971L179.582 192.042ZM179.469 130.441C193.85 145.796 193.85 169.733 179.469 185.088L186.767 191.924C204.751 172.723 204.751 142.806 186.767 123.605L179.469 130.441ZM186.653 130.559L186.67 130.542L179.601 123.469L179.583 123.486L186.653 130.559ZM186.671 123.47C186.455 123.254 186.24 123.041 186.025 122.83L179.029 129.976C179.219 130.162 179.409 130.35 179.6 130.541L186.671 123.47ZM178.539 129.48C178.675 129.616 178.809 129.752 178.942 129.889L186.111 122.917C185.946 122.747 185.779 122.578 185.61 122.409L178.539 129.48ZM175.133 126.437C176.31 127.374 177.447 128.388 178.539 129.48L185.61 122.409C184.252 121.051 182.833 119.786 181.362 118.614L175.133 126.437ZM181.449 118.685C172.707 111.396 164.36 108.008 156.446 106.696C148.67 105.408 141.516 106.175 135.535 106.796L136.567 116.742C142.674 116.109 148.547 115.524 154.811 116.562C160.937 117.577 167.645 120.195 175.045 126.366L181.449 118.685ZM135.535 106.796C125.371 107.851 119.236 108.249 113.628 102.751L106.627 109.892C116.033 119.113 127.073 117.728 136.567 116.742L135.535 106.796ZM113.698 102.821C108.2 97.2133 108.598 91.0776 109.653 80.9141L99.7065 79.8816C98.721 89.3763 97.336 100.416 106.557 109.822L113.698 102.821ZM109.653 80.9141C110.708 70.7497 112.124 57.8301 103.684 43.374L95.0482 48.4159C101.713 59.8318 100.753 69.7965 99.7065 79.8816L109.653 80.9141ZM103.766 43.5205C101.511 39.3412 98.6207 35.4196 95.1005 31.8995L88.0295 38.9705C90.8562 41.7973 93.1665 44.9348 94.9659 48.2694L103.766 43.5205ZM95.1005 31.8995C94.7621 31.5611 94.42 31.2285 94.0743 30.9017L87.205 38.169C87.4826 38.4314 87.7575 38.6986 88.0295 38.9706L95.1005 31.8995ZM94.2501 31.0764C93.8362 30.6443 93.4126 30.2116 92.9792 29.7782L85.9081 36.8492C86.2918 37.2329 86.6654 37.6146 87.0292 37.9943L94.2501 31.0764ZM85.9082 29.7781L85.8386 29.8477L92.9095 36.9189L92.9791 36.8493L85.9082 29.7781ZM92.6698 29.6232C73.026 12.4056 43.1254 13.1639 24.3898 31.8995L31.4609 38.9706C46.4469 23.9846 70.3699 23.3751 86.0784 37.1434L92.6698 29.6232ZM24.3898 31.8995C5.65426 50.6351 4.89599 80.5356 22.1135 100.179L29.6338 93.588C15.8654 77.8795 16.475 53.9565 31.4609 38.9706L24.3898 31.8995ZM22.338 93.3483L22.2684 93.4179L29.3397 100.489L29.4093 100.419L22.338 93.3483ZM22.2685 100.489C22.702 100.922 23.1348 101.346 23.5669 101.76L30.4848 94.539C30.105 94.1751 29.7233 93.8015 29.3396 93.4178L22.2685 100.489Z" fill="black" mask="url(#path-9-outside-2_201_85)"/>
</svg>
